<svg xmlns="http://www.w3.org/2000/svg" xmlns:xlink="http://www.w3.org/1999/xlink" width="90" zoomAndPan="magnify" viewBox="0 0 375 374.999991" height="90" preserveAspectRatio="xMidYMid meet" version="1.0"><defs><g/><clipPath id="id1"><path d="M 99.484375 141 L 276.484375 141 L 276.484375 188.910156 L 99.484375 188.910156 Z M 99.484375 141 " clip-rule="nonzero"/></clipPath><clipPath id="id2"><path d="M 179 172 L 197 172 L 197 188.910156 L 179 188.910156 Z M 179 172 " clip-rule="nonzero"/></clipPath><clipPath id="id3"><path d="M 142 106.410156 L 262 106.410156 L 262 175 L 142 175 Z M 142 106.410156 " clip-rule="nonzero"/></clipPath></defs><g clip-path="url(#id1)"><path fill="rgb(0%, 0%, 0%)" d="M 146.769531 186.015625 L 107.859375 186.015625 L 119.117188 173.976562 L 139.738281 151.929688 L 159.1875 172.730469 L 146.757812 186.015625 Z M 229.199219 186.015625 L 216.769531 172.730469 L 236.21875 151.929688 L 256.839844 173.976562 L 268.097656 186.015625 L 229.1875 186.015625 Z M 187.988281 146.332031 L 227.703125 188.789062 L 276.484375 188.789062 L 276.484375 186.015625 L 271.199219 186.015625 L 235.71875 148.078125 L 201.203125 156.082031 L 187.976562 141.953125 L 175.613281 155.171875 L 161.855469 156.984375 L 140.238281 148.089844 L 104.753906 186.023438 L 99.472656 186.023438 L 99.472656 188.800781 L 148.253906 188.800781 C 161.488281 174.648438 174.734375 160.496094 187.96875 146.34375 Z M 187.988281 146.332031 " fill-opacity="1" fill-rule="evenodd"/></g><g clip-path="url(#id2)"><path fill="rgb(58.81958%, 59.609985%, 60.389709%)" d="M 189.476562 172.316406 L 189.476562 178.855469 L 196.015625 178.855469 C 195.398438 175.558594 192.785156 172.933594 189.476562 172.316406 Z M 179.953125 178.855469 L 186.492188 178.855469 L 186.492188 172.316406 C 183.195312 172.933594 180.570312 175.550781 179.953125 178.855469 Z M 186.492188 188.519531 L 186.492188 181.851562 L 179.808594 181.851562 L 179.808594 188.519531 Z M 196.15625 181.851562 L 189.476562 181.851562 L 189.476562 188.519531 L 196.15625 188.519531 Z M 196.15625 181.851562 " fill-opacity="1" fill-rule="evenodd"/></g><path fill="rgb(94.898987%, 44.309998%, 21.179199%)" d="M 175.621094 155.171875 L 140.25 148.078125 L 161.25 170.539062 Z M 175.621094 155.171875 " fill-opacity="1" fill-rule="evenodd"/><path fill="rgb(94.898987%, 44.309998%, 21.179199%)" d="M 200.34375 155.171875 L 235.71875 148.078125 L 214.71875 170.539062 Z M 200.34375 155.171875 " fill-opacity="1" fill-rule="evenodd"/><path fill="rgb(58.81958%, 59.609985%, 60.389709%)" d="M 140.554688 169.910156 L 140.554688 173.433594 L 144.078125 173.433594 C 143.742188 171.65625 142.332031 170.246094 140.554688 169.910156 Z M 135.421875 173.433594 L 138.949219 173.433594 L 138.949219 169.910156 C 137.167969 170.246094 135.757812 171.65625 135.421875 173.433594 Z M 138.949219 178.640625 L 138.949219 175.039062 L 135.347656 175.039062 L 135.347656 178.640625 Z M 144.152344 175.039062 L 140.554688 175.039062 L 140.554688 178.640625 L 144.152344 178.640625 Z M 144.152344 175.039062 " fill-opacity="1" fill-rule="evenodd"/><path fill="rgb(58.81958%, 59.609985%, 60.389709%)" d="M 237.019531 169.910156 L 237.019531 173.433594 L 240.546875 173.433594 C 240.210938 171.65625 238.800781 170.246094 237.019531 169.910156 Z M 231.890625 173.433594 L 235.414062 173.433594 L 235.414062 169.910156 C 233.636719 170.246094 232.226562 171.65625 231.890625 173.433594 Z M 235.414062 178.640625 L 235.414062 175.039062 L 231.8125 175.039062 L 231.8125 178.640625 Z M 240.621094 175.039062 L 237.019531 175.039062 L 237.019531 178.640625 L 240.621094 178.640625 Z M 240.621094 175.039062 " fill-opacity="1" fill-rule="evenodd"/><path fill="rgb(0%, 0%, 0%)" d="M 123.921875 158.988281 C 127.1875 149.445312 132.625 140.703125 139.871094 133.460938 C 152.410156 120.921875 169.265625 113.9375 187.011719 113.9375 C 192.003906 113.9375 196.9375 114.492188 201.722656 115.566406 C 195.527344 113.753906 189.050781 112.832031 182.480469 112.832031 C 149.175781 112.832031 121.363281 136.59375 115.203125 168.152344 L 124.019531 158.726562 L 123.933594 158.988281 Z M 123.921875 158.988281 " fill-opacity="1" fill-rule="evenodd"/><g clip-path="url(#id3)"><path fill="rgb(94.898987%, 44.309998%, 21.179199%)" d="M 254.660156 173.457031 C 254.691406 173.707031 254.710938 173.953125 254.734375 174.214844 C 254.710938 173.964844 254.679688 173.707031 254.660156 173.457031 Z M 254.570312 172.695312 C 254.605469 172.933594 254.625 173.175781 254.660156 173.414062 C 254.636719 173.175781 254.605469 172.933594 254.570312 172.695312 Z M 254.472656 171.9375 C 254.507812 172.175781 254.539062 172.414062 254.5625 172.652344 C 254.527344 172.414062 254.507812 172.175781 254.472656 171.9375 Z M 254.367188 171.167969 C 254.398438 171.394531 254.429688 171.625 254.464844 171.851562 L 254.398438 171.363281 L 254.375 171.167969 Z M 254.125 169.59375 C 254.214844 170.09375 254.289062 170.605469 254.367188 171.101562 C 254.289062 170.605469 254.214844 170.09375 254.125 169.59375 Z M 253.867188 168.085938 C 253.910156 168.335938 253.953125 168.585938 253.996094 168.824219 C 253.953125 168.574219 253.910156 168.328125 253.867188 168.085938 Z M 253.714844 167.316406 C 253.757812 167.566406 253.8125 167.804688 253.855469 168.054688 C 253.8125 167.804688 253.757812 167.566406 253.714844 167.316406 Z M 253.398438 165.820312 C 253.453125 166.058594 253.507812 166.308594 253.550781 166.546875 C 253.496094 166.308594 253.445312 166.058594 253.398438 165.820312 Z M 253.226562 165.074219 C 253.28125 165.3125 253.335938 165.550781 253.390625 165.789062 C 253.335938 165.550781 253.28125 165.3125 253.226562 165.074219 Z M 252.671875 162.847656 C 252.804688 163.328125 252.921875 163.816406 253.042969 164.292969 C 252.921875 163.804688 252.804688 163.328125 252.671875 162.847656 Z M 252.46875 162.113281 C 252.53125 162.339844 252.597656 162.566406 252.652344 162.796875 C 252.585938 162.566406 252.53125 162.339844 252.46875 162.113281 Z M 252.261719 161.375 C 252.328125 161.589844 252.390625 161.808594 252.445312 162.023438 C 252.378906 161.808594 252.328125 161.589844 252.261719 161.375 Z M 252.042969 160.636719 C 252.109375 160.863281 252.175781 161.09375 252.238281 161.308594 C 252.175781 161.082031 252.109375 160.855469 252.042969 160.636719 Z M 251.804688 159.855469 C 251.882812 160.09375 251.957031 160.332031 252.023438 160.570312 C 251.945312 160.332031 251.882812 160.09375 251.804688 159.855469 Z M 251.566406 159.117188 C 251.644531 159.359375 251.71875 159.597656 251.792969 159.835938 C 251.71875 159.597656 251.644531 159.359375 251.566406 159.117188 Z M 183.160156 109.46875 C 202.296875 109.46875 220.488281 116.996094 234.015625 130.53125 C 242.097656 138.609375 248.085938 148.402344 251.566406 159.117188 C 251.4375 158.707031 251.296875 158.292969 251.15625 157.882812 L 261.003906 168.402344 C 255.191406 133.296875 224.6875 106.519531 187.925781 106.519531 C 171.359375 106.519531 155.488281 111.996094 142.570312 122.007812 C 154.4375 113.875 168.527344 109.46875 183.171875 109.46875 Z M 183.160156 109.46875 " fill-opacity="1" fill-rule="evenodd"/></g><path fill="rgb(100%, 79.998779%, 16.079712%)" d="M 140.25 145.085938 L 175.621094 152.167969 L 187.988281 138.945312 L 200.355469 152.167969 L 235.730469 145.085938 L 245.503906 155.539062 C 235.890625 133.027344 213.558594 117.246094 187.523438 117.246094 C 160.816406 117.246094 137.992188 133.859375 128.828125 157.308594 L 140.261719 145.085938 Z M 140.25 145.085938 " fill-opacity="1" fill-rule="evenodd"/><g fill="rgb(0%, 0%, 0%)" fill-opacity="1"><g transform="translate(86.595057, 230.240332)"><g><path d="M 7.597656 -9.097656 C 7.957031 -9.097656 8.277344 -9.167969 8.632812 -9.203125 C 8.992188 -9.203125 9.3125 -9.203125 9.667969 -9.242188 C 10.023438 -9.242188 10.347656 -9.347656 10.703125 -9.347656 C 11.058594 -9.382812 11.382812 -9.417969 11.738281 -9.417969 C 12.09375 -9.453125 12.414062 -9.453125 12.773438 -9.453125 C 13.09375 -9.488281 13.414062 -9.488281 13.734375 -9.5625 C 14.058594 -9.667969 14.34375 -9.847656 14.628906 -9.988281 C 14.949219 -10.132812 15.199219 -10.273438 15.484375 -10.453125 C 15.734375 -10.632812 16.019531 -10.808594 16.269531 -11.023438 C 16.484375 -11.238281 16.695312 -11.488281 16.910156 -11.738281 C 17.089844 -12.023438 17.230469 -12.308594 17.410156 -12.59375 C 17.554688 -12.878906 17.730469 -13.128906 17.839844 -13.449219 C 17.945312 -13.773438 18.015625 -14.058594 18.089844 -14.378906 C 18.125 -14.699219 18.265625 -15.019531 18.300781 -15.339844 C 18.300781 -15.664062 18.230469 -15.984375 18.230469 -16.269531 C 18.230469 -16.625 18.230469 -16.910156 18.195312 -17.230469 C 18.160156 -17.554688 18.089844 -17.839844 18.015625 -18.125 C 17.945312 -18.445312 17.875 -18.765625 17.730469 -19.015625 C 17.625 -19.335938 17.445312 -19.585938 17.269531 -19.835938 C 17.125 -20.121094 16.945312 -20.371094 16.734375 -20.585938 C 16.519531 -20.835938 16.269531 -21.050781 16.019531 -21.226562 C 15.769531 -21.40625 15.484375 -21.511719 15.199219 -21.65625 C 14.914062 -21.800781 14.628906 -21.941406 14.34375 -22.011719 C 14.058594 -22.121094 13.734375 -22.15625 13.414062 -22.191406 C 13.09375 -22.261719 12.773438 -22.296875 12.453125 -22.335938 C 12.128906 -22.371094 11.808594 -22.40625 11.453125 -22.441406 C 11.132812 -22.476562 10.808594 -22.511719 10.488281 -22.546875 C 10.167969 -22.546875 9.847656 -22.582031 9.527344 -22.582031 C 9.203125 -22.621094 8.882812 -22.621094 8.527344 -22.621094 C 8.207031 -22.621094 7.882812 -22.582031 7.5625 -22.582031 C 7.242188 -22.582031 6.921875 -22.621094 6.601562 -22.621094 C 6.242188 -22.582031 5.921875 -22.65625 5.601562 -22.621094 C 5.246094 -22.621094 4.960938 -22.546875 4.671875 -22.546875 C 4.316406 -22.511719 4.03125 -22.546875 3.78125 -22.546875 C 3.355469 -22.546875 3.066406 -22.476562 2.925781 -22.261719 C 2.820312 -22.085938 2.78125 -21.800781 2.746094 -21.371094 C 2.746094 -21.121094 2.746094 -20.800781 2.746094 -20.441406 C 2.746094 -20.121094 2.710938 -19.800781 2.710938 -19.445312 C 2.710938 -19.125 2.675781 -18.800781 2.710938 -18.480469 C 2.710938 -18.160156 2.710938 -17.804688 2.710938 -17.480469 C 2.746094 -17.160156 2.710938 -16.839844 2.710938 -16.484375 C 2.710938 -16.160156 2.746094 -15.839844 2.746094 -15.519531 C 2.746094 -15.164062 2.746094 -14.84375 2.746094 -14.519531 C 2.746094 -14.199219 2.78125 -13.84375 2.78125 -13.523438 C 2.78125 -13.199219 2.746094 -12.878906 2.746094 -12.523438 C 2.746094 -12.203125 2.820312 -11.878906 2.820312 -11.558594 C 2.820312 -11.238281 2.78125 -10.882812 2.78125 -10.558594 C 2.78125 -10.238281 2.855469 -9.917969 2.890625 -9.597656 C 2.890625 -9.242188 2.855469 -8.917969 2.855469 -8.597656 C 2.890625 -8.277344 2.855469 -7.957031 2.855469 -7.636719 C 2.855469 -7.277344 2.820312 -6.957031 2.820312 -6.636719 C 2.820312 -6.316406 2.855469 -5.992188 2.855469 -5.671875 C 2.855469 -5.316406 2.855469 -4.996094 2.855469 -4.671875 C 2.855469 -4.351562 2.855469 -4.03125 2.855469 -3.710938 C 2.855469 -3.390625 2.890625 -3.03125 2.890625 -2.710938 C 2.890625 -2.355469 2.855469 -2.320312 2.855469 -1.925781 C 2.890625 -1.75 2.960938 -1.5 2.996094 -1.140625 C 2.996094 -0.785156 3.03125 -0.5 3.210938 -0.355469 C 3.425781 -0.179688 3.746094 -0.144531 4.03125 -0.0703125 C 4.351562 -0.0351562 4.636719 0.0703125 4.851562 0.0703125 C 5.101562 0.105469 5.566406 0.0351562 5.957031 -0.0351562 C 6.421875 -0.105469 6.8125 -0.320312 6.777344 -0.640625 C 6.742188 -0.964844 6.707031 -1.285156 6.707031 -1.605469 C 6.707031 -1.925781 6.707031 -2.246094 6.707031 -2.570312 C 6.707031 -2.890625 6.742188 -3.210938 6.742188 -3.53125 C 6.742188 -3.816406 6.742188 -4.136719 6.742188 -4.460938 C 6.742188 -4.746094 6.636719 -5.066406 6.636719 -5.386719 C 6.636719 -5.671875 6.707031 -5.992188 6.671875 -6.316406 C 6.671875 -6.601562 6.636719 -6.921875 6.601562 -7.242188 C 6.601562 -7.527344 6.636719 -7.847656 6.601562 -8.171875 C 6.601562 -8.457031 6.601562 -8.742188 6.566406 -9.0625 C 6.921875 -9.0625 7.242188 -9.0625 7.597656 -9.097656 Z M 6.601562 -13.949219 C 6.566406 -14.269531 6.492188 -14.59375 6.492188 -14.949219 C 6.492188 -15.269531 6.492188 -15.589844 6.492188 -15.949219 C 6.492188 -16.269531 6.492188 -16.625 6.492188 -16.945312 C 6.492188 -17.269531 6.527344 -17.625 6.527344 -17.945312 C 6.527344 -18.300781 6.492188 -18.625 6.457031 -18.945312 C 6.8125 -18.945312 7.171875 -18.910156 7.527344 -18.910156 C 7.882812 -18.910156 8.207031 -18.910156 8.5625 -18.910156 C 8.917969 -18.910156 9.277344 -18.945312 9.597656 -18.945312 C 9.953125 -18.945312 10.3125 -18.945312 10.667969 -18.945312 C 10.988281 -18.910156 11.382812 -18.945312 11.703125 -18.910156 C 12.09375 -18.835938 12.414062 -18.625 12.738281 -18.515625 C 13.09375 -18.375 13.449219 -18.265625 13.699219 -18.054688 C 13.984375 -17.839844 14.128906 -17.480469 14.269531 -17.160156 C 14.378906 -16.839844 14.449219 -16.519531 14.449219 -16.125 C 14.449219 -15.804688 14.414062 -15.519531 14.34375 -15.234375 C 14.234375 -14.949219 14.128906 -14.664062 13.984375 -14.414062 C 13.808594 -14.164062 13.59375 -13.949219 13.34375 -13.773438 C 13.09375 -13.628906 12.84375 -13.484375 12.523438 -13.378906 C 12.273438 -13.308594 11.988281 -13.273438 11.667969 -13.273438 C 11.308594 -13.238281 10.988281 -13.128906 10.667969 -13.09375 C 10.3125 -13.058594 9.988281 -13.128906 9.632812 -13.09375 C 9.3125 -13.058594 8.953125 -13.023438 8.632812 -12.988281 C 8.277344 -12.949219 7.957031 -12.988281 7.597656 -12.988281 C 7.277344 -12.988281 6.957031 -12.949219 6.601562 -12.949219 C 6.601562 -13.308594 6.601562 -13.59375 6.601562 -13.949219 Z M 6.601562 -13.949219 "/></g></g></g><g fill="rgb(0%, 0%, 0%)" fill-opacity="1"><g transform="translate(116.276687, 230.240332)"><g><path d="M 7.8125 -18.480469 C 8.171875 -18.480469 8.492188 -18.515625 8.847656 -18.515625 C 9.167969 -18.515625 9.488281 -18.445312 9.847656 -18.445312 C 10.167969 -18.445312 10.488281 -18.480469 10.847656 -18.480469 C 11.167969 -18.480469 11.523438 -18.445312 11.84375 -18.445312 C 12.167969 -18.445312 12.523438 -18.445312 12.84375 -18.445312 C 13.164062 -18.445312 13.523438 -18.515625 13.84375 -18.515625 C 14.164062 -18.515625 14.519531 -18.515625 14.84375 -18.515625 C 15.269531 -18.515625 15.625 -18.480469 15.914062 -18.550781 C 16.304688 -18.625 16.519531 -18.765625 16.695312 -19.125 C 16.839844 -19.371094 16.945312 -19.695312 16.984375 -20.15625 C 16.984375 -20.515625 17.019531 -20.871094 17.019531 -21.15625 C 17.019531 -21.550781 16.984375 -21.871094 16.769531 -22.121094 C 16.554688 -22.261719 16.304688 -22.476562 15.839844 -22.546875 C 15.554688 -22.582031 15.199219 -22.511719 14.804688 -22.511719 C 14.484375 -22.511719 14.164062 -22.546875 13.878906 -22.511719 C 13.558594 -22.511719 13.238281 -22.621094 12.949219 -22.582031 C 12.628906 -22.582031 12.308594 -22.511719 11.988281 -22.511719 C 11.703125 -22.476562 11.382812 -22.441406 11.058594 -22.40625 C 10.773438 -22.40625 10.453125 -22.441406 10.132812 -22.441406 C 9.8125 -22.40625 9.453125 -22.335938 9.132812 -22.335938 C 8.777344 -22.335938 8.417969 -22.335938 8.097656 -22.371094 C 7.742188 -22.371094 7.421875 -22.441406 7.0625 -22.476562 C 6.742188 -22.511719 6.386719 -22.511719 6.066406 -22.546875 C 5.707031 -22.546875 5.351562 -22.546875 5.03125 -22.546875 C 4.671875 -22.546875 4.351562 -22.65625 3.996094 -22.65625 C 3.640625 -22.65625 3.355469 -22.546875 2.996094 -22.511719 C 2.996094 -22.226562 2.960938 -21.941406 2.960938 -21.621094 C 2.960938 -21.300781 2.890625 -20.976562 2.855469 -20.65625 C 2.855469 -20.335938 2.925781 -20.015625 2.925781 -19.730469 C 2.925781 -19.410156 2.890625 -19.085938 2.890625 -18.765625 C 2.855469 -18.445312 2.855469 -18.125 2.855469 -17.804688 C 2.855469 -17.480469 2.890625 -17.160156 2.890625 -16.875 C 2.890625 -16.554688 2.890625 -16.234375 2.890625 -15.914062 C 2.890625 -15.589844 2.78125 -15.269531 2.78125 -14.949219 C 2.78125 -14.664062 2.855469 -14.34375 2.855469 -14.019531 C 2.855469 -13.699219 2.820312 -13.378906 2.820312 -13.058594 C 2.820312 -12.773438 2.890625 -12.453125 2.855469 -12.128906 C 2.855469 -11.808594 2.746094 -11.488281 2.710938 -11.167969 C 2.710938 -10.882812 2.820312 -10.558594 2.78125 -10.238281 C 2.78125 -9.917969 2.746094 -9.597656 2.710938 -9.3125 C 2.710938 -8.992188 2.746094 -8.667969 2.746094 -8.347656 C 2.746094 -8.027344 2.746094 -7.707031 2.746094 -7.421875 C 2.746094 -7.101562 2.746094 -6.777344 2.746094 -6.457031 C 2.746094 -6.171875 2.710938 -5.851562 2.710938 -5.53125 C 2.675781 -5.207031 2.820312 -4.886719 2.820312 -4.566406 C 2.820312 -4.28125 2.710938 -3.960938 2.710938 -3.640625 C 2.710938 -3.316406 2.78125 -2.996094 2.78125 -2.710938 C 2.78125 -2.390625 2.710938 -2.070312 2.710938 -1.75 C 2.710938 -1.5 2.960938 -1.105469 3.28125 -0.785156 C 3.601562 -0.464844 3.996094 -0.25 4.28125 -0.214844 C 4.566406 -0.214844 4.886719 -0.179688 5.207031 -0.179688 C 5.496094 -0.144531 5.816406 -0.179688 6.136719 -0.144531 C 6.421875 -0.144531 6.742188 -0.0351562 7.0625 0 C 7.347656 0 7.671875 -0.105469 7.992188 -0.105469 C 8.3125 -0.105469 8.597656 -0.0703125 8.917969 -0.0703125 C 9.242188 -0.0703125 9.5625 0.0351562 9.847656 0.0703125 C 10.167969 0.0703125 10.488281 -0.0351562 10.773438 -0.0351562 C 11.09375 0 11.417969 0.0351562 11.738281 0.0351562 C 12.023438 0.0351562 12.34375 0.0703125 12.664062 0.0703125 C 12.949219 0.0703125 13.273438 0.0351562 13.59375 0.0351562 C 13.914062 0.0351562 14.199219 -0.0351562 14.519531 -0.0351562 C 14.84375 -0.0351562 15.128906 0.0351562 15.449219 0.0351562 C 15.804688 0.0351562 16.089844 -0.0703125 16.269531 -0.25 C 16.519531 -0.429688 16.589844 -0.679688 16.660156 -1 C 16.695312 -1.25 16.660156 -1.535156 16.554688 -1.820312 C 16.484375 -2.105469 16.410156 -2.390625 16.269531 -2.640625 C 16.089844 -2.925781 15.875 -3.175781 15.699219 -3.390625 C 15.484375 -3.601562 15.234375 -3.746094 14.84375 -3.78125 C 14.519531 -3.816406 14.164062 -3.78125 13.808594 -3.78125 C 13.449219 -3.78125 13.09375 -3.851562 12.738281 -3.851562 C 12.378906 -3.851562 12.023438 -3.890625 11.667969 -3.890625 C 11.308594 -3.890625 10.988281 -3.816406 10.632812 -3.816406 C 10.273438 -3.816406 9.917969 -3.746094 9.5625 -3.78125 C 9.203125 -3.78125 8.882812 -3.78125 8.527344 -3.78125 C 8.171875 -3.78125 7.8125 -3.746094 7.492188 -3.746094 C 6.886719 -3.746094 6.921875 -3.53125 6.527344 -3.851562 C 6.171875 -4.101562 6.386719 -4.136719 6.351562 -4.671875 C 6.351562 -4.921875 6.386719 -5.246094 6.386719 -5.566406 C 6.386719 -5.816406 6.351562 -6.136719 6.351562 -6.421875 C 6.351562 -6.707031 6.351562 -7.027344 6.386719 -7.277344 C 6.386719 -7.597656 6.351562 -7.921875 6.386719 -8.242188 C 6.421875 -8.527344 6.457031 -8.8125 6.566406 -9.167969 C 6.851562 -9.167969 7.171875 -9.132812 7.492188 -9.132812 C 7.8125 -9.097656 8.132812 -9.132812 8.417969 -9.132812 C 8.742188 -9.132812 9.0625 -9.097656 9.382812 -9.097656 C 9.703125 -9.097656 9.988281 -9.097656 10.3125 -9.097656 C 10.632812 -9.097656 10.917969 -9.132812 11.238281 -9.167969 C 11.558594 -9.167969 11.84375 -9.132812 12.167969 -9.132812 C 12.523438 -9.132812 12.808594 -9.242188 13.058594 -9.242188 C 13.414062 -9.277344 13.734375 -9.242188 13.949219 -9.347656 C 14.269531 -9.453125 14.484375 -9.667969 14.59375 -9.988281 C 14.664062 -10.203125 14.554688 -10.523438 14.519531 -10.882812 C 14.519531 -11.132812 14.554688 -11.453125 14.484375 -11.773438 C 14.449219 -12.058594 14.378906 -12.378906 14.308594 -12.703125 C 13.984375 -12.738281 13.59375 -12.664062 13.273438 -12.664062 C 12.914062 -12.703125 12.59375 -12.773438 12.238281 -12.773438 C 11.878906 -12.773438 11.558594 -12.84375 11.203125 -12.84375 C 10.847656 -12.878906 10.523438 -12.773438 10.167969 -12.808594 C 9.8125 -12.84375 9.488281 -12.988281 9.132812 -13.023438 C 8.882812 -13.023438 8.5625 -12.949219 8.277344 -12.949219 C 7.992188 -12.949219 7.707031 -12.988281 7.421875 -12.988281 C 6.921875 -12.988281 6.8125 -12.628906 6.527344 -12.949219 C 6.207031 -13.308594 6.566406 -13.414062 6.527344 -13.949219 C 6.527344 -14.234375 6.457031 -14.59375 6.457031 -14.914062 C 6.457031 -15.234375 6.527344 -15.589844 6.527344 -15.875 C 6.527344 -16.160156 6.566406 -16.410156 6.601562 -16.734375 C 6.636719 -16.984375 6.601562 -17.269531 6.636719 -17.589844 C 6.671875 -17.875 6.777344 -18.125 6.8125 -18.445312 C 7.171875 -18.445312 7.492188 -18.480469 7.8125 -18.480469 Z M 7.8125 -18.480469 "/></g></g></g><g fill="rgb(0%, 0%, 0%)" fill-opacity="1"><g transform="translate(144.888156, 230.240332)"><g><path d="M 7.171875 -4.03125 C 7.492188 -3.996094 7.8125 -3.925781 8.132812 -3.925781 C 8.492188 -3.925781 8.8125 -3.925781 9.132812 -3.925781 C 9.453125 -3.925781 9.777344 -3.960938 10.097656 -3.960938 C 10.417969 -3.960938 10.738281 -3.960938 11.058594 -3.960938 C 11.382812 -3.996094 11.738281 -4.066406 12.09375 -4.066406 C 12.488281 -4.03125 12.84375 -3.996094 13.164062 -3.996094 C 13.773438 -3.960938 13.773438 -4.175781 14.234375 -3.960938 C 14.628906 -3.78125 14.378906 -3.601562 14.664062 -3.175781 C 14.804688 -2.960938 15.019531 -2.746094 15.164062 -2.460938 C 15.304688 -2.210938 15.414062 -1.960938 15.519531 -1.675781 C 15.664062 -1.425781 15.804688 -1.140625 15.839844 -0.890625 C 15.949219 -0.5 16.125 -0.320312 16.304688 -0.179688 C 16.519531 -0.0351562 16.769531 -0.0351562 17.125 -0.0351562 C 17.375 -0.0351562 17.695312 0 18.015625 0 C 18.375 0 18.660156 -0.0703125 18.910156 -0.105469 C 19.300781 -0.179688 19.550781 -0.285156 19.660156 -0.5 C 19.765625 -0.714844 19.730469 -1 19.585938 -1.390625 C 19.480469 -1.640625 19.371094 -1.960938 19.230469 -2.285156 C 19.125 -2.570312 19.085938 -2.925781 18.945312 -3.210938 C 18.835938 -3.53125 18.625 -3.78125 18.515625 -4.101562 C 18.375 -4.425781 18.265625 -4.710938 18.125 -5.03125 C 18.015625 -5.316406 17.980469 -5.671875 17.875 -5.957031 C 17.730469 -6.277344 17.554688 -6.566406 17.445312 -6.851562 C 17.339844 -7.171875 17.160156 -7.457031 17.054688 -7.742188 C 16.945312 -8.027344 16.875 -8.347656 16.769531 -8.632812 C 16.660156 -8.917969 16.484375 -9.203125 16.375 -9.488281 C 16.269531 -9.8125 16.125 -10.097656 16.019531 -10.382812 C 15.914062 -10.667969 15.839844 -10.988281 15.734375 -11.273438 C 15.625 -11.59375 15.519531 -11.878906 15.414062 -12.167969 C 15.269531 -12.453125 15.164062 -12.738281 15.019531 -13.058594 C 14.914062 -13.34375 14.878906 -13.664062 14.769531 -13.949219 C 14.664062 -14.269531 14.449219 -14.519531 14.34375 -14.804688 C 14.234375 -15.089844 14.164062 -15.414062 14.058594 -15.699219 C 13.914062 -16.019531 13.878906 -16.304688 13.773438 -16.625 C 13.664062 -16.910156 13.484375 -17.195312 13.34375 -17.480469 C 13.238281 -17.765625 13.164062 -18.089844 13.058594 -18.375 C 12.914062 -18.660156 12.808594 -18.945312 12.703125 -19.265625 C 12.59375 -19.550781 12.414062 -19.835938 12.308594 -20.121094 C 12.203125 -20.40625 12.058594 -20.691406 11.953125 -20.976562 C 11.773438 -21.441406 11.738281 -21.800781 11.59375 -22.011719 C 11.308594 -22.441406 11.023438 -22.511719 10.667969 -22.546875 C 10.382812 -22.582031 10.0625 -22.582031 9.597656 -22.546875 C 9.277344 -22.546875 9.097656 -22.511719 8.8125 -22.296875 C 8.667969 -22.15625 8.417969 -22.011719 8.207031 -21.691406 C 8.097656 -21.476562 8.0625 -21.191406 7.921875 -20.871094 C 7.8125 -20.621094 7.671875 -20.371094 7.5625 -20.085938 C 7.457031 -19.800781 7.386719 -19.480469 7.277344 -19.160156 C 7.171875 -18.875 7.0625 -18.589844 6.957031 -18.265625 C 6.851562 -17.980469 6.742188 -17.660156 6.636719 -17.375 C 6.527344 -17.054688 6.386719 -16.769531 6.277344 -16.449219 C 6.171875 -16.160156 6.171875 -15.804688 6.066406 -15.519531 C 5.957031 -15.199219 5.78125 -14.949219 5.671875 -14.628906 C 5.566406 -14.34375 5.53125 -14.019531 5.421875 -13.699219 C 5.316406 -13.378906 5.136719 -13.128906 5.03125 -12.808594 C 4.960938 -12.523438 4.851562 -12.203125 4.746094 -11.878906 C 4.636719 -11.59375 4.566406 -11.273438 4.460938 -10.988281 C 4.351562 -10.667969 4.246094 -10.382812 4.136719 -10.0625 C 4.03125 -9.777344 3.960938 -9.453125 3.851562 -9.132812 C 3.746094 -8.847656 3.53125 -8.5625 3.425781 -8.277344 C 3.316406 -7.992188 3.355469 -7.636719 3.246094 -7.3125 C 3.140625 -7.027344 3.03125 -6.742188 2.925781 -6.421875 C 2.820312 -6.136719 2.605469 -5.851562 2.496094 -5.566406 C 2.390625 -5.246094 2.390625 -4.921875 2.285156 -4.636719 C 2.175781 -4.316406 2.035156 -4.03125 1.925781 -3.746094 C 1.855469 -3.566406 1.710938 -3.175781 1.535156 -2.746094 C 1.425781 -2.425781 1.320312 -2.070312 1.175781 -1.75 C 1.035156 -1.285156 0.964844 -0.890625 0.964844 -0.714844 C 0.890625 -0.105469 1.105469 0.0351562 1.570312 0.0351562 C 1.890625 0.0703125 2.285156 0 2.746094 0.0351562 C 3.066406 0.0703125 3.496094 0.0703125 3.890625 0 C 4.28125 -0.0703125 4.566406 -0.214844 4.78125 -0.570312 C 4.921875 -0.855469 5.101562 -1.105469 5.207031 -1.390625 C 5.316406 -1.675781 5.421875 -1.960938 5.53125 -2.246094 C 5.636719 -2.53125 5.707031 -2.820312 5.851562 -3.105469 C 5.957031 -3.390625 6.03125 -3.710938 6.171875 -3.996094 C 6.492188 -3.996094 6.851562 -4.03125 7.171875 -4.03125 Z M 7.636719 -8.777344 C 7.742188 -9.097656 7.847656 -9.382812 7.957031 -9.667969 C 8.0625 -9.988281 8.171875 -10.273438 8.277344 -10.597656 C 8.382812 -10.882812 8.492188 -11.167969 8.632812 -11.453125 C 8.742188 -11.773438 8.8125 -12.058594 8.953125 -12.34375 C 9.0625 -12.664062 9.277344 -12.914062 9.382812 -13.199219 C 9.488281 -13.484375 9.488281 -13.84375 9.597656 -14.164062 C 9.703125 -14.449219 9.882812 -14.769531 9.988281 -15.089844 C 10.167969 -14.769531 10.273438 -14.414062 10.417969 -14.164062 C 10.597656 -13.84375 10.808594 -13.59375 10.953125 -13.308594 C 11.132812 -13.023438 11.238281 -12.703125 11.34375 -12.414062 C 11.488281 -12.128906 11.59375 -11.808594 11.703125 -11.523438 C 11.84375 -11.203125 11.988281 -10.917969 12.09375 -10.597656 C 12.238281 -10.3125 12.414062 -10.023438 12.523438 -9.738281 C 12.664062 -9.417969 12.703125 -9.097656 12.808594 -8.777344 C 12.949219 -8.492188 13.09375 -8.207031 13.238281 -7.882812 C 12.878906 -7.882812 12.59375 -7.847656 12.273438 -7.847656 C 11.917969 -7.847656 11.59375 -7.847656 11.273438 -7.847656 C 10.917969 -7.847656 10.597656 -7.921875 10.273438 -7.921875 C 9.953125 -7.921875 9.632812 -7.882812 9.277344 -7.882812 C 8.953125 -7.882812 8.632812 -7.882812 8.277344 -7.882812 C 7.957031 -7.882812 7.597656 -7.847656 7.242188 -7.847656 C 7.347656 -8.171875 7.527344 -8.492188 7.636719 -8.777344 Z M 7.636719 -8.777344 "/></g></g></g><g fill="rgb(0%, 0%, 0%)" fill-opacity="1"><g transform="translate(175.56859, 230.240332)"><g><path d="M 7.671875 -8.8125 C 8.027344 -8.882812 8.347656 -9.0625 8.632812 -9.097656 C 9.027344 -9.132812 9.382812 -9.097656 9.667969 -9.0625 C 10.0625 -9.0625 10.347656 -8.992188 10.632812 -8.8125 C 10.882812 -8.667969 11.132812 -8.457031 11.34375 -8.132812 C 11.488281 -7.882812 11.632812 -7.5625 11.808594 -7.207031 C 11.917969 -6.921875 12.023438 -6.601562 12.203125 -6.277344 C 12.308594 -5.992188 12.523438 -5.707031 12.664062 -5.386719 C 12.808594 -5.066406 12.878906 -4.746094 13.023438 -4.425781 C 13.164062 -4.101562 13.308594 -3.816406 13.449219 -3.496094 C 13.59375 -3.175781 13.808594 -2.925781 13.949219 -2.605469 C 14.09375 -2.320312 14.269531 -1.996094 14.378906 -1.710938 C 14.554688 -1.355469 14.628906 -1.035156 14.769531 -0.785156 C 14.984375 -0.429688 15.269531 -0.285156 15.484375 -0.144531 C 15.769531 0 16.019531 0 16.410156 0 C 16.695312 -0.0351562 17.019531 -0.0351562 17.410156 -0.0351562 C 17.765625 -0.0351562 18.089844 0 18.300781 -0.0351562 C 18.695312 -0.105469 18.875 -0.25 18.835938 -0.605469 C 18.800781 -0.820312 18.765625 -1.140625 18.625 -1.5 C 18.550781 -1.75 18.339844 -1.996094 18.195312 -2.320312 C 18.089844 -2.605469 17.980469 -2.890625 17.839844 -3.210938 C 17.730469 -3.496094 17.519531 -3.78125 17.375 -4.101562 C 17.269531 -4.386719 17.125 -4.671875 17.019531 -4.996094 C 16.875 -5.28125 16.734375 -5.566406 16.589844 -5.851562 C 16.449219 -6.171875 16.339844 -6.457031 16.199219 -6.742188 C 16.054688 -7.0625 15.949219 -7.347656 15.804688 -7.636719 C 15.664062 -7.957031 15.519531 -8.242188 15.414062 -8.527344 C 15.269531 -8.8125 15.199219 -9.167969 15.089844 -9.453125 C 14.984375 -9.667969 14.984375 -9.953125 15.199219 -10.132812 C 15.519531 -10.417969 15.804688 -10.703125 16.054688 -10.917969 C 16.375 -11.203125 16.734375 -11.382812 17.019531 -11.667969 C 17.230469 -11.917969 17.375 -12.203125 17.554688 -12.453125 C 17.730469 -12.703125 17.910156 -12.988281 18.054688 -13.273438 C 18.160156 -13.558594 18.230469 -13.878906 18.339844 -14.164062 C 18.410156 -14.484375 18.480469 -14.769531 18.515625 -15.089844 C 18.550781 -15.378906 18.625 -15.699219 18.625 -16.019531 C 18.625 -16.339844 18.660156 -16.660156 18.625 -16.984375 C 18.589844 -17.269531 18.445312 -17.589844 18.339844 -17.875 C 18.265625 -18.195312 18.125 -18.480469 18.015625 -18.765625 C 17.875 -19.050781 17.765625 -19.335938 17.589844 -19.585938 C 17.410156 -19.835938 17.230469 -20.085938 17.019531 -20.335938 C 16.804688 -20.550781 16.554688 -20.765625 16.304688 -20.941406 C 16.054688 -21.15625 15.839844 -21.335938 15.554688 -21.511719 C 15.269531 -21.65625 14.984375 -21.761719 14.699219 -21.871094 C 14.414062 -21.976562 14.128906 -22.15625 13.808594 -22.191406 C 13.449219 -22.261719 13.128906 -22.226562 12.773438 -22.296875 C 12.453125 -22.335938 12.128906 -22.40625 11.773438 -22.441406 C 11.453125 -22.476562 11.09375 -22.476562 10.773438 -22.511719 C 10.417969 -22.511719 10.097656 -22.546875 9.738281 -22.582031 C 9.417969 -22.582031 9.0625 -22.546875 8.742188 -22.582031 C 8.417969 -22.582031 8.0625 -22.582031 7.742188 -22.582031 C 7.386719 -22.582031 7.0625 -22.621094 6.707031 -22.621094 C 6.386719 -22.582031 6.03125 -22.546875 5.707031 -22.546875 C 5.316406 -22.546875 4.960938 -22.582031 4.636719 -22.582031 C 4.210938 -22.582031 3.890625 -22.511719 3.601562 -22.40625 C 3.28125 -22.261719 3.105469 -22.046875 2.996094 -21.621094 C 2.960938 -21.335938 2.925781 -20.976562 2.925781 -20.550781 C 2.890625 -20.230469 2.890625 -19.90625 2.890625 -19.585938 C 2.890625 -19.300781 2.890625 -18.980469 2.890625 -18.660156 C 2.890625 -18.339844 2.890625 -18.015625 2.890625 -17.695312 C 2.890625 -17.375 2.890625 -17.054688 2.890625 -16.734375 C 2.890625 -16.410156 2.855469 -16.089844 2.820312 -15.769531 C 2.820312 -15.449219 2.746094 -15.128906 2.746094 -14.804688 C 2.746094 -14.484375 2.820312 -14.164062 2.820312 -13.84375 C 2.820312 -13.523438 2.78125 -13.199219 2.78125 -12.878906 C 2.78125 -12.558594 2.78125 -12.238281 2.78125 -11.917969 C 2.78125 -11.59375 2.78125 -11.273438 2.78125 -10.953125 C 2.78125 -10.632812 2.820312 -10.3125 2.820312 -9.988281 C 2.820312 -9.667969 2.746094 -9.382812 2.746094 -9.0625 C 2.746094 -8.742188 2.746094 -8.417969 2.746094 -8.097656 C 2.746094 -7.777344 2.78125 -7.457031 2.78125 -7.136719 C 2.78125 -6.8125 2.746094 -6.492188 2.746094 -6.207031 C 2.78125 -5.886719 2.78125 -5.566406 2.78125 -5.246094 C 2.78125 -4.921875 2.78125 -4.601562 2.78125 -4.28125 C 2.78125 -3.960938 2.855469 -3.640625 2.855469 -3.316406 C 2.855469 -3.03125 2.78125 -2.710938 2.746094 -2.355469 C 2.710938 -1.996094 2.746094 -1.675781 2.746094 -1.355469 C 2.78125 -0.964844 2.746094 -0.605469 2.890625 -0.355469 C 2.996094 -0.105469 3.425781 -0.0703125 3.816406 0 C 4.210938 0.0703125 4.636719 0.0703125 4.851562 0.0351562 C 5.136719 -0.0351562 5.457031 0 5.742188 -0.0351562 C 6.101562 -0.105469 6.421875 -0.179688 6.527344 -0.464844 C 6.636719 -0.75 6.671875 -1.140625 6.671875 -1.535156 C 6.707031 -1.890625 6.707031 -2.285156 6.707031 -2.640625 C 6.671875 -3.066406 6.671875 -3.425781 6.671875 -3.746094 C 6.671875 -4.066406 6.671875 -4.425781 6.671875 -4.746094 C 6.671875 -5.066406 6.671875 -5.421875 6.671875 -5.742188 C 6.671875 -6.066406 6.601562 -6.421875 6.601562 -6.742188 C 6.601562 -7.0625 6.707031 -7.421875 6.707031 -7.742188 C 6.707031 -8.0625 6.601562 -8.417969 6.601562 -8.742188 C 6.992188 -8.8125 7.347656 -8.777344 7.671875 -8.8125 Z M 6.777344 -13.773438 C 6.777344 -14.128906 6.8125 -14.449219 6.8125 -14.769531 C 6.8125 -15.128906 6.8125 -15.449219 6.8125 -15.769531 C 6.8125 -16.089844 6.777344 -16.449219 6.777344 -16.769531 C 6.777344 -17.089844 6.8125 -17.445312 6.8125 -17.765625 C 6.8125 -18.089844 6.8125 -18.375 6.8125 -18.730469 C 7.171875 -18.730469 7.457031 -18.765625 7.777344 -18.765625 C 8.097656 -18.765625 8.417969 -18.765625 8.742188 -18.765625 C 9.097656 -18.765625 9.417969 -18.800781 9.738281 -18.800781 C 10.0625 -18.800781 10.382812 -18.800781 10.703125 -18.800781 C 11.023438 -18.765625 11.382812 -18.800781 11.703125 -18.800781 C 12.023438 -18.765625 12.308594 -18.695312 12.558594 -18.589844 C 12.878906 -18.515625 13.199219 -18.480469 13.449219 -18.339844 C 13.699219 -18.195312 13.914062 -17.945312 14.128906 -17.765625 C 14.34375 -17.554688 14.59375 -17.339844 14.699219 -17.089844 C 14.84375 -16.804688 14.914062 -16.484375 14.914062 -16.199219 C 14.949219 -15.839844 14.84375 -15.519531 14.734375 -15.164062 C 14.628906 -14.84375 14.378906 -14.59375 14.164062 -14.308594 C 13.949219 -14.058594 13.734375 -13.773438 13.449219 -13.558594 C 13.199219 -13.378906 12.878906 -13.199219 12.558594 -13.09375 C 12.238281 -12.949219 11.917969 -12.878906 11.558594 -12.84375 C 11.273438 -12.84375 10.953125 -12.773438 10.632812 -12.773438 C 10.3125 -12.773438 9.988281 -12.773438 9.667969 -12.773438 C 9.347656 -12.773438 9.027344 -12.703125 8.707031 -12.703125 C 8.382812 -12.703125 8.0625 -12.808594 7.742188 -12.808594 C 7.421875 -12.84375 7.101562 -12.738281 6.742188 -12.738281 C 6.742188 -13.09375 6.8125 -13.449219 6.777344 -13.773438 Z M 6.777344 -13.773438 "/></g></g></g><g fill="rgb(0%, 0%, 0%)" fill-opacity="1"><g transform="translate(206.284697, 230.240332)"><g><path d="M 6.207031 -17.019531 C 6.316406 -17.339844 6.457031 -17.625 6.636719 -17.875 C 6.8125 -18.125 7.0625 -18.300781 7.3125 -18.480469 C 7.5625 -18.660156 7.777344 -18.910156 8.097656 -19.015625 C 8.382812 -19.125 8.707031 -19.160156 9.027344 -19.195312 C 9.382812 -19.265625 9.738281 -19.300781 10.0625 -19.230469 C 10.417969 -19.160156 10.738281 -19.050781 11.058594 -18.910156 C 11.382812 -18.765625 11.703125 -18.625 12.023438 -18.445312 C 12.308594 -18.265625 12.628906 -18.054688 12.914062 -17.875 C 13.238281 -17.695312 13.523438 -17.480469 13.808594 -17.339844 C 14.164062 -17.125 14.414062 -17.054688 14.628906 -17.019531 C 14.949219 -16.984375 15.199219 -17.054688 15.484375 -17.304688 C 15.664062 -17.480469 15.804688 -17.765625 16.054688 -18.054688 C 16.234375 -18.265625 16.449219 -18.625 16.625 -19.015625 C 16.769531 -19.445312 16.910156 -19.90625 16.660156 -20.121094 C 16.160156 -20.515625 15.949219 -20.65625 15.699219 -20.835938 C 15.484375 -20.976562 15.234375 -21.15625 14.699219 -21.476562 C 14.378906 -21.691406 14.019531 -21.800781 13.734375 -21.941406 C 13.414062 -22.085938 13.09375 -22.226562 12.773438 -22.335938 C 12.453125 -22.441406 12.128906 -22.582031 11.773438 -22.65625 C 11.453125 -22.726562 11.09375 -22.832031 10.738281 -22.871094 C 10.417969 -22.90625 10.0625 -22.832031 9.703125 -22.832031 C 9.347656 -22.832031 9.027344 -22.796875 8.742188 -22.761719 C 8.382812 -22.726562 8.0625 -22.726562 7.742188 -22.65625 C 7.421875 -22.582031 7.136719 -22.476562 6.8125 -22.371094 C 6.527344 -22.261719 6.242188 -22.121094 5.957031 -21.976562 C 5.636719 -21.835938 5.351562 -21.691406 5.101562 -21.511719 C 4.816406 -21.335938 4.566406 -21.121094 4.351562 -20.90625 C 4.101562 -20.65625 3.816406 -20.480469 3.640625 -20.230469 C 3.425781 -19.980469 3.316406 -19.660156 3.140625 -19.371094 C 2.996094 -19.085938 2.820312 -18.835938 2.675781 -18.515625 C 2.570312 -18.230469 2.496094 -17.910156 2.425781 -17.589844 C 2.355469 -17.269531 2.285156 -16.945312 2.246094 -16.625 C 2.210938 -16.304688 2.210938 -15.984375 2.210938 -15.625 C 2.210938 -15.304688 2.210938 -14.949219 2.285156 -14.628906 C 2.320312 -14.308594 2.425781 -13.949219 2.53125 -13.664062 C 2.640625 -13.34375 2.855469 -13.058594 2.996094 -12.773438 C 3.175781 -12.488281 3.390625 -12.203125 3.601562 -11.953125 C 3.816406 -11.703125 4.101562 -11.523438 4.386719 -11.308594 C 4.636719 -11.09375 4.921875 -10.917969 5.207031 -10.773438 C 5.496094 -10.632812 5.816406 -10.488281 6.136719 -10.382812 C 6.421875 -10.273438 6.742188 -10.167969 7.027344 -10.0625 C 7.347656 -9.953125 7.636719 -9.847656 7.957031 -9.738281 C 8.242188 -9.632812 8.5625 -9.527344 8.847656 -9.417969 C 9.167969 -9.3125 9.453125 -9.242188 9.777344 -9.097656 C 10.0625 -8.992188 10.347656 -8.847656 10.632812 -8.742188 C 10.953125 -8.632812 11.203125 -8.417969 11.523438 -8.3125 C 11.808594 -8.207031 12.128906 -8.132812 12.414062 -7.992188 C 12.703125 -7.8125 12.949219 -7.636719 13.164062 -7.421875 C 13.378906 -7.171875 13.558594 -6.921875 13.628906 -6.601562 C 13.664062 -6.316406 13.699219 -5.992188 13.628906 -5.636719 C 13.558594 -5.351562 13.414062 -5.03125 13.199219 -4.710938 C 13.023438 -4.460938 12.738281 -4.28125 12.453125 -4.066406 C 12.203125 -3.851562 11.878906 -3.710938 11.59375 -3.566406 C 11.273438 -3.425781 10.988281 -3.28125 10.667969 -3.210938 C 10.3125 -3.140625 9.988281 -3.175781 9.667969 -3.210938 C 9.3125 -3.246094 8.992188 -3.316406 8.632812 -3.425781 C 8.3125 -3.53125 7.992188 -3.675781 7.671875 -3.851562 C 7.347656 -3.996094 7.027344 -4.136719 6.742188 -4.316406 C 6.421875 -4.496094 6.171875 -4.746094 5.886719 -4.960938 C 5.601562 -5.207031 5.28125 -5.386719 5.101562 -5.636719 C 4.816406 -5.957031 4.636719 -6.171875 4.386719 -6.242188 C 4.101562 -6.316406 3.890625 -6.136719 3.566406 -5.886719 C 3.355469 -5.742188 3.140625 -5.53125 2.890625 -5.28125 C 2.605469 -4.996094 2.320312 -4.746094 2.140625 -4.53125 C 1.890625 -4.210938 1.675781 -3.890625 1.785156 -3.566406 C 1.890625 -3.316406 2.105469 -3.03125 2.460938 -2.746094 C 2.605469 -2.570312 2.820312 -2.320312 3.175781 -2.035156 C 3.390625 -1.820312 3.640625 -1.605469 3.925781 -1.390625 C 4.175781 -1.214844 4.496094 -1.070312 4.78125 -0.890625 C 5.066406 -0.714844 5.351562 -0.570312 5.671875 -0.429688 C 5.992188 -0.285156 6.316406 -0.25 6.636719 -0.179688 C 6.957031 -0.0703125 7.242188 0.144531 7.597656 0.179688 C 7.882812 0.25 8.242188 0.214844 8.597656 0.25 C 8.917969 0.285156 9.242188 0.390625 9.597656 0.390625 C 9.917969 0.390625 10.238281 0.355469 10.523438 0.355469 C 10.882812 0.320312 11.167969 0.25 11.488281 0.214844 C 11.808594 0.179688 12.09375 0.0703125 12.414062 0 C 12.738281 -0.0703125 13.023438 -0.144531 13.308594 -0.25 C 13.628906 -0.355469 13.914062 -0.464844 14.199219 -0.605469 C 14.484375 -0.75 14.769531 -0.890625 15.019531 -1.070312 C 15.304688 -1.25 15.519531 -1.5 15.734375 -1.710938 C 15.984375 -1.890625 16.269531 -2.070312 16.449219 -2.320312 C 16.660156 -2.570312 16.804688 -2.855469 16.945312 -3.140625 C 17.089844 -3.425781 17.269531 -3.675781 17.375 -3.996094 C 17.480469 -4.28125 17.554688 -4.601562 17.625 -4.921875 C 17.660156 -5.207031 17.660156 -5.53125 17.660156 -5.851562 C 17.660156 -6.171875 17.660156 -6.492188 17.625 -6.8125 C 17.589844 -7.101562 17.519531 -7.421875 17.445312 -7.707031 C 17.375 -8.027344 17.230469 -8.3125 17.125 -8.597656 C 17.019531 -8.882812 16.945312 -9.167969 16.769531 -9.453125 C 16.625 -9.703125 16.410156 -9.953125 16.234375 -10.203125 C 16.019531 -10.417969 15.769531 -10.632812 15.554688 -10.847656 C 15.304688 -11.023438 15.128906 -11.273438 14.84375 -11.453125 C 14.59375 -11.632812 14.34375 -11.773438 14.058594 -11.917969 C 13.773438 -12.058594 13.484375 -12.167969 13.164062 -12.273438 C 12.878906 -12.34375 12.59375 -12.414062 12.308594 -12.523438 C 12.058594 -12.59375 11.773438 -12.738281 11.488281 -12.808594 C 11.238281 -12.914062 10.953125 -12.988281 10.667969 -13.09375 C 10.382812 -13.199219 10.097656 -13.238281 9.8125 -13.34375 C 9.527344 -13.449219 9.203125 -13.523438 8.882812 -13.664062 C 8.597656 -13.773438 8.3125 -13.949219 8.027344 -14.09375 C 7.707031 -14.199219 7.421875 -14.34375 7.136719 -14.519531 C 6.851562 -14.734375 6.636719 -14.949219 6.457031 -15.199219 C 6.242188 -15.449219 6.066406 -15.769531 6.03125 -16.089844 C 6.03125 -16.410156 6.136719 -16.734375 6.207031 -17.019531 Z M 6.207031 -17.019531 "/></g></g></g><g fill="rgb(0%, 0%, 0%)" fill-opacity="1"><g transform="translate(235.752281, 230.240332)"><g><path d="M 19.085938 -12.878906 C 19.085938 -13.164062 18.945312 -13.449219 18.945312 -13.734375 C 18.910156 -14.058594 18.875 -14.34375 18.835938 -14.628906 C 18.800781 -14.914062 18.835938 -15.234375 18.765625 -15.519531 C 18.660156 -15.839844 18.480469 -16.125 18.410156 -16.484375 C 18.300781 -16.804688 18.230469 -17.125 18.125 -17.445312 C 18.015625 -17.765625 17.945312 -18.125 17.804688 -18.410156 C 17.695312 -18.730469 17.589844 -19.050781 17.410156 -19.371094 C 17.269531 -19.660156 17.089844 -19.980469 16.875 -20.230469 C 16.695312 -20.515625 16.484375 -20.800781 16.234375 -21.050781 C 15.984375 -21.265625 15.664062 -21.40625 15.378906 -21.621094 C 15.089844 -21.800781 14.804688 -21.976562 14.484375 -22.121094 C 14.199219 -22.261719 13.84375 -22.335938 13.523438 -22.441406 C 13.199219 -22.511719 12.878906 -22.621094 12.523438 -22.691406 C 12.203125 -22.761719 11.878906 -22.796875 11.523438 -22.796875 C 11.203125 -22.832031 10.847656 -22.832031 10.523438 -22.832031 C 10.167969 -22.832031 9.847656 -22.832031 9.488281 -22.761719 C 9.167969 -22.726562 8.847656 -22.65625 8.492188 -22.582031 C 8.171875 -22.511719 7.8125 -22.511719 7.492188 -22.40625 C 7.171875 -22.261719 6.886719 -22.085938 6.601562 -21.90625 C 6.277344 -21.761719 6.03125 -21.585938 5.742188 -21.371094 C 5.457031 -21.191406 5.101562 -21.085938 4.851562 -20.835938 C 4.601562 -20.621094 4.425781 -20.335938 4.175781 -20.050781 C 3.996094 -19.800781 3.78125 -19.515625 3.601562 -19.230469 C 3.425781 -18.945312 3.316406 -18.589844 3.210938 -18.265625 C 3.066406 -17.980469 2.960938 -17.660156 2.855469 -17.304688 C 2.78125 -16.984375 2.640625 -16.660156 2.570312 -16.339844 C 2.496094 -15.984375 2.355469 -15.664062 2.285156 -15.339844 C 2.210938 -14.984375 2.246094 -14.628906 2.210938 -14.308594 C 2.175781 -13.949219 2.140625 -13.628906 2.105469 -13.273438 C 2.070312 -12.949219 1.996094 -12.59375 1.996094 -12.273438 C 1.960938 -11.917969 1.960938 -11.59375 1.996094 -11.238281 C 1.996094 -10.882812 2.035156 -10.558594 2.070312 -10.203125 C 2.070312 -9.882812 2.070312 -9.527344 2.105469 -9.167969 C 2.140625 -8.847656 2.210938 -8.527344 2.285156 -8.171875 C 2.355469 -7.847656 2.320312 -7.492188 2.425781 -7.136719 C 2.496094 -6.851562 2.675781 -6.566406 2.746094 -6.242188 C 2.855469 -5.921875 2.925781 -5.601562 3.03125 -5.316406 C 3.140625 -4.996094 3.28125 -4.710938 3.425781 -4.425781 C 3.566406 -4.136719 3.710938 -3.851562 3.851562 -3.566406 C 4.03125 -3.28125 4.246094 -3.03125 4.425781 -2.746094 C 4.636719 -2.460938 4.816406 -2.210938 5.066406 -1.960938 C 5.316406 -1.710938 5.566406 -1.460938 5.816406 -1.25 C 6.066406 -1.035156 6.386719 -0.855469 6.671875 -0.679688 C 6.957031 -0.5 7.277344 -0.320312 7.5625 -0.179688 C 7.882812 -0.0351562 8.242188 0.0351562 8.5625 0.105469 C 8.882812 0.214844 9.242188 0.25 9.5625 0.320312 C 9.917969 0.355469 10.238281 0.355469 10.597656 0.355469 C 10.917969 0.355469 11.273438 0.355469 11.59375 0.285156 C 11.953125 0.25 12.273438 0.179688 12.59375 0.0703125 C 12.914062 -0.0351562 13.238281 -0.144531 13.558594 -0.285156 C 13.878906 -0.429688 14.164062 -0.605469 14.449219 -0.785156 C 14.734375 -1 15.019531 -1.140625 15.304688 -1.390625 C 15.554688 -1.605469 15.839844 -1.785156 16.089844 -2.035156 C 16.304688 -2.285156 16.484375 -2.605469 16.660156 -2.890625 C 16.839844 -3.175781 17.019531 -3.425781 17.195312 -3.710938 C 17.339844 -3.960938 17.519531 -4.246094 17.660156 -4.53125 C 17.804688 -4.816406 17.910156 -5.101562 18.054688 -5.421875 C 18.160156 -5.707031 18.230469 -6.03125 18.339844 -6.316406 C 18.445312 -6.636719 18.589844 -6.921875 18.660156 -7.207031 C 18.730469 -7.527344 18.835938 -7.847656 18.910156 -8.171875 C 18.945312 -8.457031 18.980469 -8.777344 19.015625 -9.097656 C 19.050781 -9.417969 19.085938 -9.738281 19.125 -10.0625 C 19.125 -10.382812 19.125 -10.703125 19.125 -11.023438 C 19.125 -11.34375 19.125 -11.667969 19.125 -11.988281 C 19.085938 -12.273438 19.125 -12.558594 19.085938 -12.878906 Z M 5.707031 -12.058594 C 5.742188 -12.378906 5.707031 -12.664062 5.742188 -12.988281 C 5.78125 -13.273438 5.78125 -13.59375 5.816406 -13.878906 C 5.851562 -14.199219 5.921875 -14.484375 5.992188 -14.769531 C 6.03125 -15.089844 6.136719 -15.378906 6.207031 -15.664062 C 6.277344 -15.984375 6.316406 -16.339844 6.457031 -16.625 C 6.636719 -16.910156 6.8125 -17.195312 6.992188 -17.445312 C 7.207031 -17.730469 7.492188 -17.945312 7.742188 -18.160156 C 7.992188 -18.339844 8.277344 -18.550781 8.5625 -18.695312 C 8.847656 -18.835938 9.167969 -19.015625 9.488281 -19.085938 C 9.8125 -19.195312 10.167969 -19.195312 10.488281 -19.195312 C 10.808594 -19.195312 11.132812 -19.195312 11.453125 -19.085938 C 11.738281 -19.015625 12.023438 -18.835938 12.308594 -18.660156 C 12.59375 -18.515625 12.878906 -18.410156 13.128906 -18.195312 C 13.378906 -17.980469 13.558594 -17.695312 13.773438 -17.445312 C 13.949219 -17.195312 14.128906 -16.945312 14.308594 -16.625 C 14.449219 -16.375 14.554688 -16.054688 14.664062 -15.734375 C 14.769531 -15.414062 14.878906 -15.089844 14.949219 -14.769531 C 15.019531 -14.449219 15.089844 -14.128906 15.164062 -13.808594 C 15.199219 -13.449219 15.234375 -13.128906 15.269531 -12.808594 C 15.304688 -12.453125 15.378906 -12.128906 15.414062 -11.808594 C 15.414062 -11.453125 15.378906 -11.132812 15.378906 -10.808594 C 15.378906 -10.453125 15.378906 -10.132812 15.339844 -9.777344 C 15.304688 -9.453125 15.234375 -9.132812 15.164062 -8.777344 C 15.089844 -8.457031 15.019531 -8.132812 14.949219 -7.8125 C 14.84375 -7.492188 14.734375 -7.171875 14.59375 -6.851562 C 14.484375 -6.527344 14.34375 -6.242188 14.199219 -5.992188 C 14.058594 -5.707031 13.878906 -5.421875 13.699219 -5.207031 C 13.484375 -4.960938 13.273438 -4.710938 13.023438 -4.53125 C 12.773438 -4.316406 12.488281 -4.210938 12.203125 -4.066406 C 11.917969 -3.925781 11.59375 -3.925781 11.273438 -3.890625 C 10.988281 -3.816406 10.667969 -3.746094 10.347656 -3.78125 C 10.023438 -3.816406 9.703125 -3.851562 9.417969 -3.960938 C 9.097656 -4.03125 8.777344 -4.175781 8.527344 -4.316406 C 8.242188 -4.460938 7.992188 -4.671875 7.777344 -4.886719 C 7.527344 -5.101562 7.3125 -5.351562 7.136719 -5.636719 C 6.957031 -5.886719 6.851562 -6.207031 6.742188 -6.492188 C 6.601562 -6.777344 6.527344 -7.101562 6.421875 -7.421875 C 6.316406 -7.707031 6.207031 -8.027344 6.136719 -8.3125 C 6.066406 -8.632812 6.03125 -8.953125 5.957031 -9.277344 C 5.921875 -9.597656 5.816406 -9.917969 5.78125 -10.203125 C 5.707031 -10.523438 5.671875 -10.847656 5.601562 -11.167969 C 5.636719 -11.453125 5.671875 -11.773438 5.707031 -12.058594 Z M 5.707031 -12.058594 "/></g></g></g><g fill="rgb(0%, 0%, 0%)" fill-opacity="1"><g transform="translate(266.896459, 230.240332)"><g><path d="M 6.886719 -13.128906 C 7.027344 -13.128906 7.277344 -12.773438 7.5625 -12.308594 C 7.707031 -12.058594 7.957031 -11.773438 8.132812 -11.453125 C 8.3125 -11.167969 8.457031 -10.847656 8.597656 -10.523438 C 8.777344 -10.203125 8.882812 -9.847656 9.027344 -9.597656 C 9.203125 -9.3125 9.417969 -9.0625 9.597656 -8.777344 C 9.738281 -8.492188 9.917969 -8.207031 10.097656 -7.921875 C 10.273438 -7.671875 10.382812 -7.347656 10.558594 -7.101562 C 10.738281 -6.8125 11.023438 -6.601562 11.167969 -6.316406 C 11.34375 -6.03125 11.558594 -5.78125 11.738281 -5.496094 C 11.917969 -5.246094 12.058594 -4.960938 12.238281 -4.671875 C 12.453125 -4.386719 12.628906 -4.136719 12.808594 -3.851562 C 12.988281 -3.566406 13.09375 -3.28125 13.273438 -2.996094 C 13.449219 -2.710938 13.664062 -2.460938 13.84375 -2.175781 C 14.019531 -1.890625 14.164062 -1.570312 14.34375 -1.285156 C 14.554688 -1.035156 14.804688 -0.785156 15.054688 -0.570312 C 15.304688 -0.390625 15.589844 -0.214844 15.914062 -0.105469 C 16.234375 0 16.554688 0 16.945312 0 C 17.339844 0 17.625 0 17.839844 -0.0351562 C 18.230469 -0.144531 18.339844 -0.355469 18.410156 -0.679688 C 18.445312 -0.925781 18.445312 -1.214844 18.480469 -1.605469 C 18.480469 -1.925781 18.445312 -2.246094 18.480469 -2.570312 C 18.480469 -2.890625 18.550781 -3.210938 18.589844 -3.53125 C 18.589844 -3.851562 18.515625 -4.175781 18.515625 -4.496094 C 18.515625 -4.816406 18.550781 -5.136719 18.550781 -5.457031 C 18.550781 -5.78125 18.625 -6.101562 18.625 -6.421875 C 18.625 -6.742188 18.550781 -7.0625 18.589844 -7.421875 C 18.589844 -7.742188 18.660156 -8.0625 18.660156 -8.382812 C 18.660156 -8.707031 18.695312 -9.027344 18.695312 -9.347656 C 18.695312 -9.667969 18.625 -9.988281 18.625 -10.3125 C 18.625 -10.632812 18.730469 -10.953125 18.730469 -11.273438 C 18.730469 -11.632812 18.730469 -11.953125 18.730469 -12.273438 C 18.765625 -12.59375 18.695312 -12.914062 18.695312 -13.238281 C 18.695312 -13.558594 18.695312 -13.878906 18.695312 -14.199219 C 18.695312 -14.519531 18.765625 -14.84375 18.765625 -15.164062 C 18.765625 -15.484375 18.800781 -15.804688 18.800781 -16.089844 C 18.800781 -16.449219 18.730469 -16.769531 18.730469 -17.054688 C 18.730469 -17.410156 18.835938 -17.730469 18.835938 -18.054688 C 18.835938 -18.375 18.800781 -18.695312 18.800781 -19.015625 C 18.800781 -19.335938 18.800781 -19.660156 18.800781 -19.980469 C 18.800781 -20.335938 18.875 -20.621094 18.835938 -20.90625 C 18.800781 -21.265625 18.765625 -21.585938 18.660156 -21.835938 C 18.515625 -22.15625 18.300781 -22.371094 17.980469 -22.476562 C 17.730469 -22.582031 17.410156 -22.511719 17.054688 -22.511719 C 16.769531 -22.476562 16.449219 -22.476562 16.089844 -22.40625 C 15.839844 -22.371094 15.554688 -22.226562 15.234375 -22.121094 C 15.234375 -21.835938 15.164062 -21.585938 15.164062 -21.226562 C 15.128906 -20.941406 15.164062 -20.621094 15.164062 -20.300781 C 15.164062 -19.980469 15.089844 -19.660156 15.089844 -19.335938 C 15.089844 -19.015625 15.164062 -18.695312 15.164062 -18.375 C 15.164062 -18.089844 15.089844 -17.765625 15.089844 -17.445312 C 15.089844 -17.125 15.128906 -16.804688 15.128906 -16.484375 C 15.128906 -16.160156 15.019531 -15.839844 15.019531 -15.519531 C 15.019531 -15.234375 15.128906 -14.914062 15.128906 -14.59375 C 15.128906 -14.269531 15.054688 -13.949219 15.054688 -13.628906 C 15.054688 -13.308594 15.019531 -12.988281 15.019531 -12.703125 C 15.019531 -12.378906 15.054688 -12.058594 15.054688 -11.738281 C 15.054688 -11.417969 15.019531 -11.09375 15.019531 -10.808594 C 14.984375 -10.453125 14.949219 -10.132812 14.949219 -9.882812 C 14.914062 -9.277344 14.914062 -8.917969 14.878906 -8.953125 C 14.554688 -8.992188 14.308594 -9.3125 14.058594 -9.667969 C 13.84375 -10.023438 13.664062 -10.453125 13.523438 -10.667969 C 13.34375 -10.917969 13.09375 -11.167969 12.949219 -11.417969 C 12.773438 -11.703125 12.59375 -11.988281 12.414062 -12.273438 C 12.238281 -12.523438 12.167969 -12.84375 11.988281 -13.128906 C 11.808594 -13.414062 11.558594 -13.628906 11.382812 -13.914062 C 11.238281 -14.199219 11.058594 -14.449219 10.882812 -14.734375 C 10.703125 -15.019531 10.558594 -15.304688 10.382812 -15.589844 C 10.203125 -15.875 10.0625 -16.160156 9.917969 -16.449219 C 9.738281 -16.695312 9.5625 -16.984375 9.382812 -17.269531 C 9.203125 -17.554688 9.097656 -17.839844 8.917969 -18.125 C 8.777344 -18.410156 8.527344 -18.625 8.347656 -18.910156 C 8.171875 -19.160156 8.0625 -19.480469 7.882812 -19.730469 C 7.707031 -20.015625 7.492188 -20.265625 7.3125 -20.550781 C 7.171875 -20.835938 6.992188 -21.121094 6.851562 -21.371094 C 6.636719 -21.761719 6.457031 -21.976562 6.242188 -22.191406 C 5.992188 -22.40625 5.742188 -22.476562 5.351562 -22.511719 C 5.101562 -22.546875 4.746094 -22.546875 4.351562 -22.511719 C 3.78125 -22.546875 3.460938 -22.546875 3.246094 -22.546875 C 2.820312 -22.511719 2.78125 -22.371094 2.78125 -21.726562 C 2.78125 -21.40625 2.855469 -21.085938 2.855469 -20.765625 C 2.855469 -20.441406 2.855469 -20.121094 2.855469 -19.800781 C 2.855469 -19.480469 2.746094 -19.160156 2.746094 -18.835938 C 2.746094 -18.515625 2.78125 -18.195312 2.78125 -17.875 C 2.78125 -17.554688 2.746094 -17.230469 2.78125 -16.910156 C 2.78125 -16.589844 2.820312 -16.269531 2.820312 -15.949219 C 2.820312 -15.625 2.855469 -15.304688 2.855469 -14.984375 C 2.855469 -14.664062 2.820312 -14.34375 2.820312 -14.019531 C 2.820312 -13.699219 2.746094 -13.378906 2.746094 -13.09375 C 2.78125 -12.773438 2.855469 -12.453125 2.855469 -12.128906 C 2.855469 -11.808594 2.890625 -11.488281 2.890625 -11.167969 C 2.890625 -10.847656 2.855469 -10.523438 2.855469 -10.203125 C 2.855469 -9.882812 2.855469 -9.5625 2.855469 -9.242188 C 2.855469 -8.953125 2.890625 -8.597656 2.890625 -8.277344 C 2.890625 -7.957031 2.855469 -7.636719 2.855469 -7.277344 C 2.855469 -6.957031 2.855469 -6.636719 2.855469 -6.277344 C 2.855469 -5.957031 2.78125 -5.636719 2.78125 -5.28125 C 2.78125 -4.960938 2.855469 -4.636719 2.855469 -4.316406 C 2.855469 -3.960938 2.820312 -3.640625 2.78125 -3.316406 C 2.78125 -2.996094 2.820312 -2.640625 2.820312 -2.320312 C 2.820312 -1.996094 2.78125 -1.640625 2.78125 -1.355469 C 2.78125 -0.925781 2.855469 -0.640625 2.996094 -0.429688 C 3.140625 -0.179688 3.390625 0 3.746094 0.0703125 C 3.996094 0.144531 4.316406 0.179688 4.671875 0.179688 C 5.066406 0.179688 5.386719 0.144531 5.671875 0.0703125 C 6.03125 0 6.316406 -0.144531 6.492188 -0.429688 C 6.636719 -0.640625 6.671875 -0.964844 6.707031 -1.355469 C 6.707031 -1.605469 6.707031 -1.925781 6.671875 -2.246094 C 6.671875 -2.570312 6.671875 -2.855469 6.671875 -3.175781 C 6.636719 -3.496094 6.636719 -3.816406 6.636719 -4.066406 C 6.636719 -4.425781 6.636719 -4.78125 6.636719 -5.101562 C 6.601562 -5.457031 6.601562 -5.78125 6.601562 -6.101562 C 6.601562 -6.457031 6.601562 -6.8125 6.601562 -7.136719 C 6.601562 -7.492188 6.636719 -7.8125 6.636719 -8.171875 C 6.636719 -8.492188 6.707031 -8.847656 6.707031 -9.167969 C 6.707031 -9.527344 6.636719 -9.847656 6.636719 -10.203125 C 6.636719 -10.523438 6.636719 -10.882812 6.636719 -11.238281 C 6.636719 -11.558594 6.636719 -11.878906 6.601562 -12.273438 C 6.636719 -12.664062 6.492188 -13.199219 6.886719 -13.128906 Z M 6.886719 -13.128906 "/></g></g></g></svg>